<svg width="16" height="16" viewBox="0 0 16 16" fill="none" xmlns="http://www.w3.org/2000/svg">
<g clip-path="url(#clip0_3203_27611)">
<rect width="16" height="16" rx="8" fill="#F5FAFF"/>
<rect x="0.5" y="0.5" width="15" height="15" rx="7.5" stroke="#F5FAFF"/>
<path fill-rule="evenodd" clip-rule="evenodd" d="M11.3975 4.9267L6.62421 9.53337L5.35755 8.18004C5.12421 7.96004 4.75755 7.9467 4.49088 8.13337C4.23088 8.3267 4.15755 8.6667 4.31755 8.94003L5.81755 11.38C5.96421 11.6067 6.21755 11.7467 6.50421 11.7467C6.77755 11.7467 7.03755 11.6067 7.18421 11.38C7.42421 11.0667 12.0042 5.6067 12.0042 5.6067C12.6042 4.99337 11.8775 4.45337 11.3975 4.92004V4.9267Z" fill="#0B6CF4"/>
</g>
<rect x="0.5" y="0.5" width="15" height="15" rx="7.5" stroke="#0B6CF4"/>
<defs>
<clipPath id="clip0_3203_27611">
<rect width="16" height="16" rx="8" fill="white"/>
</clipPath>
</defs>
</svg>
